<?xml version="1.0" encoding="utf-8" standalone="no"?>
<!DOCTYPE svg PUBLIC "-//W3C//DTD SVG 1.1//EN"
  "http://www.w3.org/Graphics/SVG/1.1/DTD/svg11.dtd">
<svg xmlns:xlink="http://www.w3.org/1999/xlink" width="432pt" height="288pt" viewBox="0 0 432 288" xmlns="http://www.w3.org/2000/svg" version="1.1">
 <metadata>
  <rdf:RDF xmlns:dc="http://purl.org/dc/elements/1.1/" xmlns:cc="http://creativecommons.org/ns#" xmlns:rdf="http://www.w3.org/1999/02/22-rdf-syntax-ns#">
   <cc:Work>
    <dc:type rdf:resource="http://purl.org/dc/dcmitype/StillImage"/>
    <dc:date>2022-10-31T16:21:50.672842</dc:date>
    <dc:format>image/svg+xml</dc:format>
    <dc:creator>
     <cc:Agent>
      <dc:title>Matplotlib v3.5.2, https://matplotlib.org/</dc:title>
     </cc:Agent>
    </dc:creator>
   </cc:Work>
  </rdf:RDF>
 </metadata>
 <defs>
  <style type="text/css">*{stroke-linejoin: round; stroke-linecap: butt}</style>
 </defs>
 <g id="figure_1">
  <g id="patch_1">
   <path d="M 0 288 
L 432 288 
L 432 0 
L 0 0 
L 0 288 
z
" style="fill: none"/>
  </g>
  <g id="axes_1">
   <g id="patch_2">
    <path d="M 313.721354 145.27918 
C 313.462021 152.096659 311.878608 158.798994 309.059575 165.011748 
C 306.240541 171.224503 302.23938 176.829786 297.279623 181.51445 
C 292.319866 186.199114 286.495627 189.874265 280.132287 192.334583 
C 273.768947 194.794902 266.987253 195.993703 260.166077 195.864013 
C 253.3449 195.734323 246.613677 194.278603 240.348457 191.57818 
C 234.083237 188.877757 228.402907 184.983872 223.624807 180.114064 
C 218.846708 175.244255 215.061506 169.490931 212.480669 163.17551 
C 209.899832 156.860089 208.572331 150.102409 208.572331 143.28 
C 208.572331 136.457591 209.899832 129.699911 212.480669 123.38449 
C 215.061506 117.069069 218.846708 111.315745 223.624807 106.445936 
C 228.402907 101.576128 234.083237 97.682243 240.348457 94.98182 
C 246.613677 92.281397 253.3449 90.825677 260.166077 90.695987 
C 266.987253 90.566297 273.768947 91.765098 280.132287 94.225417 
C 286.495627 96.685735 292.319866 100.360886 297.279623 105.04555 
C 302.23938 109.730214 306.240541 115.335497 309.059575 121.548252 
C 311.878608 127.761006 313.462021 134.463341 313.721354 141.28082 
C 313.460645 129.240295 310.847161 117.366224 306.028438 106.328918 
C 301.209716 95.291612 294.278168 85.302744 285.625091 76.926201 
C 276.972015 68.549658 266.763358 61.946085 255.575416 57.488265 
C 244.387474 53.030444 232.434809 50.803869 220.392167 50.934231 
C 208.349525 51.064593 196.447861 53.549394 185.359042 58.248361 
C 174.270222 62.947329 164.206909 69.770347 155.737192 78.332245 
C 147.267475 86.894144 140.553787 97.030723 135.975124 108.169756 
C 131.396462 119.308789 129.040636 131.236653 129.040636 143.28 
C 129.040636 155.323347 131.396462 167.251211 135.975124 178.390244 
C 140.553787 189.529277 147.267475 199.665856 155.737192 208.227755 
C 164.206909 216.789653 174.270222 223.612671 185.359042 228.311639 
C 196.447861 233.010606 208.349525 235.495407 220.392167 235.625769 
C 232.434809 235.756131 244.387474 233.529556 255.575416 229.071735 
C 266.763358 224.613915 276.972015 218.010342 285.625091 209.633799 
C 294.278168 201.257256 301.209716 191.268388 306.028438 180.231082 
C 310.847161 169.193776 313.460645 157.319705 313.721354 145.27918 
" clip-path="url(#p7f67a417b3)" style="fill: #ffd700"/>
   </g>
   <g id="patch_3">
    <path d="M 313.721354 141.28082 
C 313.735781 141.947116 313.742995 142.613548 313.742995 143.28 
C 313.742995 143.946452 313.735781 144.612884 313.721354 145.27918 
C 313.746692 144.613088 313.759364 143.946574 313.759364 143.28 
C 313.759364 142.613426 313.746692 141.946912 313.721354 141.28082 
" clip-path="url(#p7f67a417b3)" style="fill: #4169e1"/>
   </g>
   <g id="patch_4">
    <path d="M 313.721354 145.27918 
C 313.735781 144.612884 313.742995 143.946452 313.742995 143.28 
C 313.742995 142.613548 313.735781 141.947116 313.721354 141.28082 
C 313.462021 134.463341 311.878608 127.761006 309.059575 121.548252 
C 306.240541 115.335497 302.23938 109.730214 297.279623 105.04555 
C 292.319866 100.360886 286.495627 96.685735 280.132287 94.225417 
C 273.768947 91.765098 266.987253 90.566297 260.166077 90.695987 
C 253.3449 90.825677 246.613677 92.281397 240.348457 94.98182 
C 234.083237 97.682243 228.402907 101.576128 223.624807 106.445936 
C 218.846708 111.315745 215.061506 117.069069 212.480669 123.38449 
C 209.899832 129.699911 208.572331 136.457591 208.572331 143.28 
C 208.572331 150.102409 209.899832 156.860089 212.480669 163.17551 
C 215.061506 169.490931 218.846708 175.244255 223.624807 180.114064 
C 228.402907 184.983872 234.083237 188.877757 240.348457 191.57818 
C 246.613677 194.278603 253.3449 195.734323 260.166077 195.864013 
C 266.987253 195.993703 273.768947 194.794902 280.132287 192.334583 
C 286.495627 189.874265 292.319866 186.199114 297.279623 181.51445 
C 302.23938 176.829786 306.240541 171.224503 309.059575 165.011748 
C 311.878608 158.798994 313.462021 152.096659 313.721354 145.27918 
" clip-path="url(#p7f67a417b3)" style="fill: #e0e09d"/>
   </g>
   <g id="text_1">
    <!-- 1825 -->
    <g transform="translate(156.081484 146.039375)scale(0.1 -0.1)">
     <defs>
      <path id="DejaVuSans-31" d="M 794 531 
L 1825 531 
L 1825 4091 
L 703 3866 
L 703 4441 
L 1819 4666 
L 2450 4666 
L 2450 531 
L 3481 531 
L 3481 0 
L 794 0 
L 794 531 
z
" transform="scale(0.015625)"/>
      <path id="DejaVuSans-38" d="M 2034 2216 
Q 1584 2216 1326 1975 
Q 1069 1734 1069 1313 
Q 1069 891 1326 650 
Q 1584 409 2034 409 
Q 2484 409 2743 651 
Q 3003 894 3003 1313 
Q 3003 1734 2745 1975 
Q 2488 2216 2034 2216 
z
M 1403 2484 
Q 997 2584 770 2862 
Q 544 3141 544 3541 
Q 544 4100 942 4425 
Q 1341 4750 2034 4750 
Q 2731 4750 3128 4425 
Q 3525 4100 3525 3541 
Q 3525 3141 3298 2862 
Q 3072 2584 2669 2484 
Q 3125 2378 3379 2068 
Q 3634 1759 3634 1313 
Q 3634 634 3220 271 
Q 2806 -91 2034 -91 
Q 1263 -91 848 271 
Q 434 634 434 1313 
Q 434 1759 690 2068 
Q 947 2378 1403 2484 
z
M 1172 3481 
Q 1172 3119 1398 2916 
Q 1625 2713 2034 2713 
Q 2441 2713 2670 2916 
Q 2900 3119 2900 3481 
Q 2900 3844 2670 4047 
Q 2441 4250 2034 4250 
Q 1625 4250 1398 4047 
Q 1172 3844 1172 3481 
z
" transform="scale(0.015625)"/>
      <path id="DejaVuSans-32" d="M 1228 531 
L 3431 531 
L 3431 0 
L 469 0 
L 469 531 
Q 828 903 1448 1529 
Q 2069 2156 2228 2338 
Q 2531 2678 2651 2914 
Q 2772 3150 2772 3378 
Q 2772 3750 2511 3984 
Q 2250 4219 1831 4219 
Q 1534 4219 1204 4116 
Q 875 4013 500 3803 
L 500 4441 
Q 881 4594 1212 4672 
Q 1544 4750 1819 4750 
Q 2544 4750 2975 4387 
Q 3406 4025 3406 3419 
Q 3406 3131 3298 2873 
Q 3191 2616 2906 2266 
Q 2828 2175 2409 1742 
Q 1991 1309 1228 531 
z
" transform="scale(0.015625)"/>
      <path id="DejaVuSans-35" d="M 691 4666 
L 3169 4666 
L 3169 4134 
L 1269 4134 
L 1269 2991 
Q 1406 3038 1543 3061 
Q 1681 3084 1819 3084 
Q 2600 3084 3056 2656 
Q 3513 2228 3513 1497 
Q 3513 744 3044 326 
Q 2575 -91 1722 -91 
Q 1428 -91 1123 -41 
Q 819 9 494 109 
L 494 744 
Q 775 591 1075 516 
Q 1375 441 1709 441 
Q 2250 441 2565 725 
Q 2881 1009 2881 1497 
Q 2881 1984 2565 2268 
Q 2250 2553 1709 2553 
Q 1456 2553 1204 2497 
Q 953 2441 691 2322 
L 691 4666 
z
" transform="scale(0.015625)"/>
     </defs>
     <use xlink:href="#DejaVuSans-31"/>
     <use xlink:href="#DejaVuSans-38" x="63.623047"/>
     <use xlink:href="#DejaVuSans-32" x="127.246094"/>
     <use xlink:href="#DejaVuSans-35" x="190.869141"/>
    </g>
   </g>
   <g id="text_2">
    <!-- 0 -->
    <g transform="translate(310.56993 146.039375)scale(0.1 -0.1)">
     <defs>
      <path id="DejaVuSans-30" d="M 2034 4250 
Q 1547 4250 1301 3770 
Q 1056 3291 1056 2328 
Q 1056 1369 1301 889 
Q 1547 409 2034 409 
Q 2525 409 2770 889 
Q 3016 1369 3016 2328 
Q 3016 3291 2770 3770 
Q 2525 4250 2034 4250 
z
M 2034 4750 
Q 2819 4750 3233 4129 
Q 3647 3509 3647 2328 
Q 3647 1150 3233 529 
Q 2819 -91 2034 -91 
Q 1250 -91 836 529 
Q 422 1150 422 2328 
Q 422 3509 836 4129 
Q 1250 4750 2034 4750 
z
" transform="scale(0.015625)"/>
     </defs>
     <use xlink:href="#DejaVuSans-30"/>
    </g>
   </g>
   <g id="text_3">
    <!-- 876 -->
    <g transform="translate(251.613913 146.039375)scale(0.1 -0.1)">
     <defs>
      <path id="DejaVuSans-37" d="M 525 4666 
L 3525 4666 
L 3525 4397 
L 1831 0 
L 1172 0 
L 2766 4134 
L 525 4134 
L 525 4666 
z
" transform="scale(0.015625)"/>
      <path id="DejaVuSans-36" d="M 2113 2584 
Q 1688 2584 1439 2293 
Q 1191 2003 1191 1497 
Q 1191 994 1439 701 
Q 1688 409 2113 409 
Q 2538 409 2786 701 
Q 3034 994 3034 1497 
Q 3034 2003 2786 2293 
Q 2538 2584 2113 2584 
z
M 3366 4563 
L 3366 3988 
Q 3128 4100 2886 4159 
Q 2644 4219 2406 4219 
Q 1781 4219 1451 3797 
Q 1122 3375 1075 2522 
Q 1259 2794 1537 2939 
Q 1816 3084 2150 3084 
Q 2853 3084 3261 2657 
Q 3669 2231 3669 1497 
Q 3669 778 3244 343 
Q 2819 -91 2113 -91 
Q 1303 -91 875 529 
Q 447 1150 447 2328 
Q 447 3434 972 4092 
Q 1497 4750 2381 4750 
Q 2619 4750 2861 4703 
Q 3103 4656 3366 4563 
z
" transform="scale(0.015625)"/>
     </defs>
     <use xlink:href="#DejaVuSans-38"/>
     <use xlink:href="#DejaVuSans-37" x="63.623047"/>
     <use xlink:href="#DejaVuSans-36" x="127.246094"/>
    </g>
   </g>
   <g id="text_4">
    <!-- level1 -->
    <g transform="translate(185.219316 251.996539)scale(0.12 -0.12)">
     <defs>
      <path id="DejaVuSans-6c" d="M 603 4863 
L 1178 4863 
L 1178 0 
L 603 0 
L 603 4863 
z
" transform="scale(0.015625)"/>
      <path id="DejaVuSans-65" d="M 3597 1894 
L 3597 1613 
L 953 1613 
Q 991 1019 1311 708 
Q 1631 397 2203 397 
Q 2534 397 2845 478 
Q 3156 559 3463 722 
L 3463 178 
Q 3153 47 2828 -22 
Q 2503 -91 2169 -91 
Q 1331 -91 842 396 
Q 353 884 353 1716 
Q 353 2575 817 3079 
Q 1281 3584 2069 3584 
Q 2775 3584 3186 3129 
Q 3597 2675 3597 1894 
z
M 3022 2063 
Q 3016 2534 2758 2815 
Q 2500 3097 2075 3097 
Q 1594 3097 1305 2825 
Q 1016 2553 972 2059 
L 3022 2063 
z
" transform="scale(0.015625)"/>
      <path id="DejaVuSans-76" d="M 191 3500 
L 800 3500 
L 1894 563 
L 2988 3500 
L 3597 3500 
L 2284 0 
L 1503 0 
L 191 3500 
z
" transform="scale(0.015625)"/>
     </defs>
     <use xlink:href="#DejaVuSans-6c"/>
     <use xlink:href="#DejaVuSans-65" x="27.783203"/>
     <use xlink:href="#DejaVuSans-76" x="89.306641"/>
     <use xlink:href="#DejaVuSans-65" x="148.486328"/>
     <use xlink:href="#DejaVuSans-6c" x="210.009766"/>
     <use xlink:href="#DejaVuSans-31" x="237.792969"/>
    </g>
   </g>
   <g id="text_5">
    <!-- level2 -->
    <g transform="translate(261.165848 212.238876)scale(0.12 -0.12)">
     <use xlink:href="#DejaVuSans-6c"/>
     <use xlink:href="#DejaVuSans-65" x="27.783203"/>
     <use xlink:href="#DejaVuSans-76" x="89.306641"/>
     <use xlink:href="#DejaVuSans-65" x="148.486328"/>
     <use xlink:href="#DejaVuSans-6c" x="210.009766"/>
     <use xlink:href="#DejaVuSans-32" x="237.792969"/>
    </g>
   </g>
  </g>
 </g>
 <defs>
  <clipPath id="p7f67a417b3">
   <rect x="112.671816" y="34.56" width="217.456369" height="217.44"/>
  </clipPath>
 </defs>
</svg>
